<svg version="1.1" viewBox="0.0 0.0 220.8005249343832 220.8005249343832" fill="none" stroke="none" stroke-linecap="square" stroke-miterlimit="10" xmlns:xlink="http://www.w3.org/1999/xlink" xmlns="http://www.w3.org/2000/svg"><clipPath id="p.0"><path d="m0 0l220.80052 0l0 220.80052l-220.80052 0l0 -220.80052z" clip-rule="nonzero"/></clipPath><g clip-path="url(#p.0)"><path fill="#000000" fill-opacity="0.0" d="m0 0l220.80052 0l0 220.80052l-220.80052 0z" fill-rule="evenodd"/><path fill="#ef9b32" d="m9.387162 24.392796l0 0c0 6.0707836 4.815583 10.992126 10.755906 10.992126l0 0c2.852642 0 5.5884495 -1.1580963 7.6055737 -3.2195206c2.0171223 -2.0614223 3.1503315 -4.857313 3.1503315 -7.772606l0 0c0 -6.0707836 -4.8155823 -10.992126 -10.755905 -10.992126l0 0c-5.940323 0 -10.755906 4.921343 -10.755906 10.992126z" fill-rule="evenodd"/><path fill="#000000" fill-opacity="0.0" d="m3.2173228 24.40636l0 0c0 -9.532348 7.56533 -17.259842 16.897636 -17.259842l0 0c4.481533 0 8.779514 1.8184428 11.948437 5.0552907c3.1689186 3.2368488 4.9492035 7.626957 4.9492035 12.204552l0 0c0 9.532349 -7.5653324 17.259842 -16.89764 17.259842l0 0c-9.332307 0 -16.897636 -7.7274933 -16.897636 -17.259842z" fill-rule="evenodd"/><path stroke="#3eabc2" stroke-width="4.0" stroke-linejoin="round" stroke-linecap="butt" d="m3.2173228 24.40636l0 0c0 -9.532348 7.56533 -17.259842 16.897636 -17.259842l0 0c4.481533 0 8.779514 1.8184428 11.948437 5.0552907c3.1689186 3.2368488 4.9492035 7.626957 4.9492035 12.204552l0 0c0 9.532349 -7.5653324 17.259842 -16.89764 17.259842l0 0c-9.332307 0 -16.897636 -7.7274933 -16.897636 -17.259842z" fill-rule="evenodd"/><path fill="#ef9b32" d="m190.37292 24.392796l0 0c0 6.0707836 4.8155823 10.992126 10.755905 10.992126l0 0c2.8526306 0 5.58844 -1.1580963 7.6055603 -3.2195206c2.0171356 -2.0614223 3.1503448 -4.857313 3.1503448 -7.772606l0 0c0 -6.0707836 -4.8155823 -10.992126 -10.755905 -10.992126l0 0c-5.940323 0 -10.755905 4.921343 -10.755905 10.992126z" fill-rule="evenodd"/><path fill="#000000" fill-opacity="0.0" d="m184.20308 24.40636l0 0c0 -9.532348 7.565323 -17.259842 16.897644 -17.259842l0 0c4.4815216 0 8.7795105 1.8184428 11.948425 5.0552907c3.16893 3.2368488 4.9492035 7.626957 4.9492035 12.204552l0 0c0 9.532349 -7.565323 17.259842 -16.897629 17.259842l0 0c-9.332321 0 -16.897644 -7.7274933 -16.897644 -17.259842z" fill-rule="evenodd"/><path stroke="#3eabc2" stroke-width="4.0" stroke-linejoin="round" stroke-linecap="butt" d="m184.20308 24.40636l0 0c0 -9.532348 7.565323 -17.259842 16.897644 -17.259842l0 0c4.4815216 0 8.7795105 1.8184428 11.948425 5.0552907c3.16893 3.2368488 4.9492035 7.626957 4.9492035 12.204552l0 0c0 9.532349 -7.565323 17.259842 -16.897629 17.259842l0 0c-9.332321 0 -16.897644 -7.7274933 -16.897644 -17.259842z" fill-rule="evenodd"/><path fill="#ef9b32" d="m9.387162 201.14131l0 0c0 6.0707855 4.815583 10.992126 10.755906 10.992126l0 0c2.852642 0 5.5884495 -1.1580963 7.6055737 -3.219513c2.0171223 -2.061432 3.1503315 -4.857315 3.1503315 -7.7726135l0 0c0 -6.0707855 -4.8155823 -10.992126 -10.755905 -10.992126l0 0c-5.940323 0 -10.755906 4.921341 -10.755906 10.992126z" fill-rule="evenodd"/><path fill="#000000" fill-opacity="0.0" d="m3.2173228 201.15488l0 0c0 -9.532349 7.56533 -17.259842 16.897636 -17.259842l0 0c4.481533 0 8.779514 1.8184357 11.948437 5.0552826c3.1689186 3.2368622 4.9492035 7.6269684 4.9492035 12.204559l0 0c0 9.532349 -7.5653324 17.259842 -16.89764 17.259842l0 0c-9.332307 0 -16.897636 -7.7274933 -16.897636 -17.259842z" fill-rule="evenodd"/><path stroke="#3eabc2" stroke-width="4.0" stroke-linejoin="round" stroke-linecap="butt" d="m3.2173228 201.15488l0 0c0 -9.532349 7.56533 -17.259842 16.897636 -17.259842l0 0c4.481533 0 8.779514 1.8184357 11.948437 5.0552826c3.1689186 3.2368622 4.9492035 7.6269684 4.9492035 12.204559l0 0c0 9.532349 -7.5653324 17.259842 -16.89764 17.259842l0 0c-9.332307 0 -16.897636 -7.7274933 -16.897636 -17.259842z" fill-rule="evenodd"/><path fill="#ef9b32" d="m190.37292 201.14131l0 0c0 6.0707855 4.8155823 10.992126 10.755905 10.992126l0 0c2.8526306 0 5.58844 -1.1580963 7.6055603 -3.219513c2.0171356 -2.061432 3.1503448 -4.857315 3.1503448 -7.7726135l0 0c0 -6.0707855 -4.8155823 -10.992126 -10.755905 -10.992126l0 0c-5.940323 0 -10.755905 4.921341 -10.755905 10.992126z" fill-rule="evenodd"/><path fill="#000000" fill-opacity="0.0" d="m184.20308 201.15488l0 0c0 -9.532349 7.565323 -17.259842 16.897644 -17.259842l0 0c4.4815216 0 8.7795105 1.8184357 11.948425 5.0552826c3.16893 3.2368622 4.9492035 7.6269684 4.9492035 12.204559l0 0c0 9.532349 -7.565323 17.259842 -16.897629 17.259842l0 0c-9.332321 0 -16.897644 -7.7274933 -16.897644 -17.259842z" fill-rule="evenodd"/><path stroke="#3eabc2" stroke-width="4.0" stroke-linejoin="round" stroke-linecap="butt" d="m184.20308 201.15488l0 0c0 -9.532349 7.565323 -17.259842 16.897644 -17.259842l0 0c4.4815216 0 8.7795105 1.8184357 11.948425 5.0552826c3.16893 3.2368622 4.9492035 7.6269684 4.9492035 12.204559l0 0c0 9.532349 -7.565323 17.259842 -16.897629 17.259842l0 0c-9.332321 0 -16.897644 -7.7274933 -16.897644 -17.259842z" fill-rule="evenodd"/><path fill="#000000" fill-opacity="0.0" d="m20.11496 41.666203c0 35.557636 45.244095 53.335735 90.48819 71.115265c45.244095 17.779518 90.48819 35.56048 90.48819 71.12095" fill-rule="evenodd"/><path stroke="#3eabc2" stroke-width="8.0" stroke-linejoin="round" stroke-linecap="butt" d="m20.11496 41.666203c0 35.557636 45.244095 53.335735 90.48819 71.115265c45.244095 17.779518 90.48819 35.56048 90.48819 71.12095" fill-rule="evenodd"/><path fill="#000000" fill-opacity="0.0" d="m20.11496 183.89503c0 -35.557632 45.244095 -53.33574 90.48819 -71.115265c45.244095 -17.779526 90.48819 -35.56048 90.48819 -71.12096" fill-rule="evenodd"/><path stroke="#3eabc2" stroke-width="8.0" stroke-linejoin="round" stroke-linecap="butt" d="m20.11496 183.89503c0 -35.557632 45.244095 -53.33574 90.48819 -71.115265c45.244095 -17.779526 90.48819 -35.56048 90.48819 -71.12096" fill-rule="evenodd"/><path fill="#3eabc2" d="m96.769005 111.965645l0 0c0 -7.3492966 5.830879 -13.307083 13.023621 -13.307083l0 0c3.4540863 0 6.766693 1.4019928 9.209091 3.8975525c2.4424057 2.4955673 3.814537 5.880272 3.814537 9.409531l0 0c0 7.349304 -5.830879 13.307091 -13.023628 13.307091l0 0c-7.1927414 0 -13.023621 -5.9577866 -13.023621 -13.307091z" fill-rule="evenodd"/><path stroke="#3eabc2" stroke-width="4.0" stroke-linejoin="round" stroke-linecap="butt" d="m96.769005 111.965645l0 0c0 -7.3492966 5.830879 -13.307083 13.023621 -13.307083l0 0c3.4540863 0 6.766693 1.4019928 9.209091 3.8975525c2.4424057 2.4955673 3.814537 5.880272 3.814537 9.409531l0 0c0 7.349304 -5.830879 13.307091 -13.023628 13.307091l0 0c-7.1927414 0 -13.023621 -5.9577866 -13.023621 -13.307091z" fill-rule="evenodd"/><path fill="#000000" fill-opacity="0.0" d="m33.779316 17.401176c5.4288406 -1.2921734 20.880505 -5.624614 32.57304 -7.753046c11.692535 -2.1284328 25.193184 -4.409426 37.58219 -5.01755c12.389008 -0.6081233 25.894173 0.07663345 36.751854 1.3688078c10.857681 1.2921748 20.738235 4.332086 28.394226 6.3842387c7.6559906 2.0521526 14.618103 4.940563 17.541718 5.9286766" fill-rule="evenodd"/><path stroke="#3eabc2" stroke-width="8.0" stroke-linejoin="round" stroke-linecap="butt" d="m33.779316 17.401176c5.4288406 -1.2921734 20.880505 -5.624614 32.57304 -7.753046c11.692535 -2.1284328 25.193184 -4.409426 37.58219 -5.01755c12.389008 -0.6081233 25.894173 0.07663345 36.751854 1.3688078c10.857681 1.2921748 20.738235 4.332086 28.394226 6.3842387c7.6559906 2.0521526 14.618103 4.940563 17.541718 5.9286766" fill-rule="evenodd"/><path fill="#000000" fill-opacity="0.0" d="m34.497627 32.047337c8.011108 1.149498 29.793175 5.6648293 48.066643 6.8969765c18.27346 1.2321472 44.110573 1.3987198 61.574142 0.49591064c17.463577 -0.90281296 36.006073 -4.9273186 43.20729 -5.9127846" fill-rule="evenodd"/><path stroke="#3eabc2" stroke-width="8.0" stroke-linejoin="round" stroke-linecap="butt" d="m34.497627 32.047337c8.011108 1.149498 29.793175 5.6648293 48.066643 6.8969765c18.27346 1.2321472 44.110573 1.3987198 61.574142 0.49591064c17.463577 -0.90281296 36.006073 -4.9273186 43.20729 -5.9127846" fill-rule="evenodd"/><path fill="#000000" fill-opacity="0.0" d="m185.98009 200.57356c-5.2863464 0.41584778 -20.332458 1.8100739 -31.71811 2.495041c-11.385651 0.6849518 -24.531952 1.4190063 -36.595795 1.6147156c-12.063843 0.19569397 -25.214554 -0.024673462 -35.787254 -0.44050598c-10.572708 -0.41583252 -20.193932 -1.3941193 -27.64898 -2.054535c-7.4550476 -0.66041565 -14.234428 -1.5899353 -17.08131 -1.9079285" fill-rule="evenodd"/><path stroke="#3eabc2" stroke-width="8.0" stroke-linejoin="round" stroke-linecap="butt" d="m185.98009 200.57356c-5.2863464 0.41584778 -20.332458 1.8100739 -31.71811 2.495041c-11.385651 0.6849518 -24.531952 1.4190063 -36.595795 1.6147156c-12.063843 0.19569397 -25.214554 -0.024673462 -35.787254 -0.44050598c-10.572708 -0.41583252 -20.193932 -1.3941193 -27.64898 -2.054535c-7.4550476 -0.66041565 -14.234428 -1.5899353 -17.08131 -1.9079285" fill-rule="evenodd"/><path fill="#ef9b32" d="m101.52407 111.94931l0 0c0 4.679199 3.7086334 8.472443 8.283463 8.472443l0 0c2.1969147 0 4.3038483 -0.89263153 5.857292 -2.4815216c1.5534515 -1.5888901 2.426178 -3.7438889 2.426178 -5.990921l0 0c0 -4.679199 -3.7086334 -8.472435 -8.28347 -8.472435l0 0c-4.574829 0 -8.283463 3.7932358 -8.283463 8.472435z" fill-rule="evenodd"/></g></svg>